<svg width="24" height="19" viewBox="0 0 24 19" fill="none" xmlns="http://www.w3.org/2000/svg">
<path d="M21.543 4.73C21.5576 4.93614 21.5576 5.14227 21.5576 5.35031C21.5576 11.6893 16.6045 19 7.54759 19V18.9962C4.87215 19 2.25229 18.2533 0 16.8455C0.389031 16.8911 0.780012 16.9139 1.17197 16.9149C3.38915 16.9168 5.54296 16.192 7.28726 14.8573C5.18026 14.8184 3.3326 13.4799 2.68714 11.5259C3.42523 11.6646 4.18574 11.6361 4.91018 11.4432C2.61304 10.9911 0.96039 9.02468 0.96039 6.74102C0.96039 6.72013 0.96039 6.70018 0.96039 6.68023C1.64485 7.05165 2.41121 7.25779 3.19512 7.28059C1.03157 5.87183 0.364656 3.06761 1.67118 0.875144C4.17111 3.87221 7.8596 5.69419 11.8191 5.88703C11.4223 4.22083 11.9644 2.47484 13.2436 1.30357C15.2268 -0.512718 18.3459 -0.419624 20.2101 1.5116C21.3129 1.29977 22.3698 0.905542 23.337 0.346977C22.9694 1.45746 22.2001 2.40075 21.1725 3.00016C22.1484 2.88807 23.102 2.63348 24 2.24496C23.3389 3.2101 22.5063 4.05079 21.543 4.73Z" fill="#2CE5A7"/>
</svg>
